<?xml version="1.0" ?>
<svg xmlns="http://www.w3.org/2000/svg" width="1200" height="800" viewBox="0 0 1200 800">
  <rect width="100%" height="100%" fill="#F5F0E8"/>
  <defs>
    <pattern id="roofPattern" width="20" height="20" patternUnits="userSpaceOnUse">
      <rect width="20" height="20" fill="#E8DDD0"/>
      <line x1="0" y1="10" x2="20" y2="10" stroke="#D4C9BC" stroke-width="0.5"/>
    </pattern>
  </defs>
  <rect x="500" y="20" width="200" height="60" fill="#4CAF50" rx="5"/>
  <text x="600" y="55" text-anchor="middle" fill="white" font-family="Arial, sans-serif" font-size="18" font-weight="bold">MAIN ENTRANCE</text>
  <rect x="50" y="120" width="350" height="280" fill="#FFECB3" stroke="#BDBDBD" stroke-width="2" rx="8"/>
  <text x="225.0" y="145" text-anchor="middle" fill="#424242" font-family="Arial, sans-serif" font-size="16" font-weight="bold">Foodstuffs</text>
  <rect x="70" y="170" width="60" height="50" fill="url(#roofPattern)" stroke="#9E9E9E" stroke-width="1" rx="3"/>
  <text x="100.0" y="200.0" text-anchor="middle" fill="#616161" font-family="Arial, sans-serif" font-size="11">S1</text>
  <rect x="145" y="170" width="60" height="50" fill="url(#roofPattern)" stroke="#9E9E9E" stroke-width="1" rx="3"/>
  <text x="175.0" y="200.0" text-anchor="middle" fill="#616161" font-family="Arial, sans-serif" font-size="11">S2</text>
  <rect x="220" y="170" width="60" height="50" fill="url(#roofPattern)" stroke="#9E9E9E" stroke-width="1" rx="3"/>
  <text x="250.0" y="200.0" text-anchor="middle" fill="#616161" font-family="Arial, sans-serif" font-size="11">S3</text>
  <rect x="295" y="170" width="60" height="50" fill="url(#roofPattern)" stroke="#9E9E9E" stroke-width="1" rx="3"/>
  <text x="325.0" y="200.0" text-anchor="middle" fill="#616161" font-family="Arial, sans-serif" font-size="11">S4</text>
  <rect x="70" y="235" width="60" height="50" fill="url(#roofPattern)" stroke="#9E9E9E" stroke-width="1" rx="3"/>
  <text x="100.0" y="265.0" text-anchor="middle" fill="#616161" font-family="Arial, sans-serif" font-size="11">S5</text>
  <rect x="145" y="235" width="60" height="50" fill="url(#roofPattern)" stroke="#9E9E9E" stroke-width="1" rx="3"/>
  <text x="175.0" y="265.0" text-anchor="middle" fill="#616161" font-family="Arial, sans-serif" font-size="11">S6</text>
  <rect x="220" y="235" width="60" height="50" fill="url(#roofPattern)" stroke="#9E9E9E" stroke-width="1" rx="3"/>
  <text x="250.0" y="265.0" text-anchor="middle" fill="#616161" font-family="Arial, sans-serif" font-size="11">S7</text>
  <rect x="295" y="235" width="60" height="50" fill="url(#roofPattern)" stroke="#9E9E9E" stroke-width="1" rx="3"/>
  <text x="325.0" y="265.0" text-anchor="middle" fill="#616161" font-family="Arial, sans-serif" font-size="11">S8</text>
  <rect x="70" y="300" width="60" height="50" fill="url(#roofPattern)" stroke="#9E9E9E" stroke-width="1" rx="3"/>
  <text x="100.0" y="330.0" text-anchor="middle" fill="#616161" font-family="Arial, sans-serif" font-size="11">S9</text>
  <rect x="145" y="300" width="60" height="50" fill="url(#roofPattern)" stroke="#9E9E9E" stroke-width="1" rx="3"/>
  <text x="175.0" y="330.0" text-anchor="middle" fill="#616161" font-family="Arial, sans-serif" font-size="11">S10</text>
  <rect x="220" y="300" width="60" height="50" fill="url(#roofPattern)" stroke="#9E9E9E" stroke-width="1" rx="3"/>
  <text x="250.0" y="330.0" text-anchor="middle" fill="#616161" font-family="Arial, sans-serif" font-size="11">S11</text>
  <rect x="295" y="300" width="60" height="50" fill="url(#roofPattern)" stroke="#9E9E9E" stroke-width="1" rx="3"/>
  <text x="325.0" y="330.0" text-anchor="middle" fill="#616161" font-family="Arial, sans-serif" font-size="11">S12</text>
  <rect x="50" y="430" width="350" height="280" fill="#E3F2FD" stroke="#BDBDBD" stroke-width="2" rx="8"/>
  <text x="225.0" y="455" text-anchor="middle" fill="#424242" font-family="Arial, sans-serif" font-size="16" font-weight="bold">Electronics</text>
  <rect x="70" y="480" width="60" height="50" fill="url(#roofPattern)" stroke="#9E9E9E" stroke-width="1" rx="3"/>
  <text x="100.0" y="510.0" text-anchor="middle" fill="#616161" font-family="Arial, sans-serif" font-size="11">S1</text>
  <rect x="145" y="480" width="60" height="50" fill="url(#roofPattern)" stroke="#9E9E9E" stroke-width="1" rx="3"/>
  <text x="175.0" y="510.0" text-anchor="middle" fill="#616161" font-family="Arial, sans-serif" font-size="11">S2</text>
  <rect x="220" y="480" width="60" height="50" fill="url(#roofPattern)" stroke="#9E9E9E" stroke-width="1" rx="3"/>
  <text x="250.0" y="510.0" text-anchor="middle" fill="#616161" font-family="Arial, sans-serif" font-size="11">S3</text>
  <rect x="295" y="480" width="60" height="50" fill="url(#roofPattern)" stroke="#9E9E9E" stroke-width="1" rx="3"/>
  <text x="325.0" y="510.0" text-anchor="middle" fill="#616161" font-family="Arial, sans-serif" font-size="11">S4</text>
  <rect x="70" y="545" width="60" height="50" fill="url(#roofPattern)" stroke="#9E9E9E" stroke-width="1" rx="3"/>
  <text x="100.0" y="575.0" text-anchor="middle" fill="#616161" font-family="Arial, sans-serif" font-size="11">S5</text>
  <rect x="145" y="545" width="60" height="50" fill="url(#roofPattern)" stroke="#9E9E9E" stroke-width="1" rx="3"/>
  <text x="175.0" y="575.0" text-anchor="middle" fill="#616161" font-family="Arial, sans-serif" font-size="11">S6</text>
  <rect x="220" y="545" width="60" height="50" fill="url(#roofPattern)" stroke="#9E9E9E" stroke-width="1" rx="3"/>
  <text x="250.0" y="575.0" text-anchor="middle" fill="#616161" font-family="Arial, sans-serif" font-size="11">S7</text>
  <rect x="295" y="545" width="60" height="50" fill="url(#roofPattern)" stroke="#9E9E9E" stroke-width="1" rx="3"/>
  <text x="325.0" y="575.0" text-anchor="middle" fill="#616161" font-family="Arial, sans-serif" font-size="11">S8</text>
  <rect x="70" y="610" width="60" height="50" fill="url(#roofPattern)" stroke="#9E9E9E" stroke-width="1" rx="3"/>
  <text x="100.0" y="640.0" text-anchor="middle" fill="#616161" font-family="Arial, sans-serif" font-size="11">S9</text>
  <rect x="145" y="610" width="60" height="50" fill="url(#roofPattern)" stroke="#9E9E9E" stroke-width="1" rx="3"/>
  <text x="175.0" y="640.0" text-anchor="middle" fill="#616161" font-family="Arial, sans-serif" font-size="11">S10</text>
  <rect x="220" y="610" width="60" height="50" fill="url(#roofPattern)" stroke="#9E9E9E" stroke-width="1" rx="3"/>
  <text x="250.0" y="640.0" text-anchor="middle" fill="#616161" font-family="Arial, sans-serif" font-size="11">S11</text>
  <rect x="295" y="610" width="60" height="50" fill="url(#roofPattern)" stroke="#9E9E9E" stroke-width="1" rx="3"/>
  <text x="325.0" y="640.0" text-anchor="middle" fill="#616161" font-family="Arial, sans-serif" font-size="11">S12</text>
  <rect x="425" y="120" width="350" height="280" fill="#F3E5F5" stroke="#BDBDBD" stroke-width="2" rx="8"/>
  <text x="600.0" y="145" text-anchor="middle" fill="#424242" font-family="Arial, sans-serif" font-size="16" font-weight="bold">Clothing</text>
  <rect x="445" y="170" width="60" height="50" fill="url(#roofPattern)" stroke="#9E9E9E" stroke-width="1" rx="3"/>
  <text x="475.0" y="200.0" text-anchor="middle" fill="#616161" font-family="Arial, sans-serif" font-size="11">S1</text>
  <rect x="520" y="170" width="60" height="50" fill="url(#roofPattern)" stroke="#9E9E9E" stroke-width="1" rx="3"/>
  <text x="550.0" y="200.0" text-anchor="middle" fill="#616161" font-family="Arial, sans-serif" font-size="11">S2</text>
  <rect x="595" y="170" width="60" height="50" fill="url(#roofPattern)" stroke="#9E9E9E" stroke-width="1" rx="3"/>
  <text x="625.0" y="200.0" text-anchor="middle" fill="#616161" font-family="Arial, sans-serif" font-size="11">S3</text>
  <rect x="670" y="170" width="60" height="50" fill="url(#roofPattern)" stroke="#9E9E9E" stroke-width="1" rx="3"/>
  <text x="700.0" y="200.0" text-anchor="middle" fill="#616161" font-family="Arial, sans-serif" font-size="11">S4</text>
  <rect x="445" y="235" width="60" height="50" fill="url(#roofPattern)" stroke="#9E9E9E" stroke-width="1" rx="3"/>
  <text x="475.0" y="265.0" text-anchor="middle" fill="#616161" font-family="Arial, sans-serif" font-size="11">S5</text>
  <rect x="520" y="235" width="60" height="50" fill="url(#roofPattern)" stroke="#9E9E9E" stroke-width="1" rx="3"/>
  <text x="550.0" y="265.0" text-anchor="middle" fill="#616161" font-family="Arial, sans-serif" font-size="11">S6</text>
  <rect x="595" y="235" width="60" height="50" fill="url(#roofPattern)" stroke="#9E9E9E" stroke-width="1" rx="3"/>
  <text x="625.0" y="265.0" text-anchor="middle" fill="#616161" font-family="Arial, sans-serif" font-size="11">S7</text>
  <rect x="670" y="235" width="60" height="50" fill="url(#roofPattern)" stroke="#9E9E9E" stroke-width="1" rx="3"/>
  <text x="700.0" y="265.0" text-anchor="middle" fill="#616161" font-family="Arial, sans-serif" font-size="11">S8</text>
  <rect x="445" y="300" width="60" height="50" fill="url(#roofPattern)" stroke="#9E9E9E" stroke-width="1" rx="3"/>
  <text x="475.0" y="330.0" text-anchor="middle" fill="#616161" font-family="Arial, sans-serif" font-size="11">S9</text>
  <rect x="520" y="300" width="60" height="50" fill="url(#roofPattern)" stroke="#9E9E9E" stroke-width="1" rx="3"/>
  <text x="550.0" y="330.0" text-anchor="middle" fill="#616161" font-family="Arial, sans-serif" font-size="11">S10</text>
  <rect x="595" y="300" width="60" height="50" fill="url(#roofPattern)" stroke="#9E9E9E" stroke-width="1" rx="3"/>
  <text x="625.0" y="330.0" text-anchor="middle" fill="#616161" font-family="Arial, sans-serif" font-size="11">S11</text>
  <rect x="670" y="300" width="60" height="50" fill="url(#roofPattern)" stroke="#9E9E9E" stroke-width="1" rx="3"/>
  <text x="700.0" y="330.0" text-anchor="middle" fill="#616161" font-family="Arial, sans-serif" font-size="11">S12</text>
  <rect x="425" y="430" width="350" height="280" fill="#E8F5E9" stroke="#BDBDBD" stroke-width="2" rx="8"/>
  <text x="600.0" y="455" text-anchor="middle" fill="#424242" font-family="Arial, sans-serif" font-size="16" font-weight="bold">Accessories</text>
  <rect x="445" y="480" width="60" height="50" fill="url(#roofPattern)" stroke="#9E9E9E" stroke-width="1" rx="3"/>
  <text x="475.0" y="510.0" text-anchor="middle" fill="#616161" font-family="Arial, sans-serif" font-size="11">S1</text>
  <rect x="520" y="480" width="60" height="50" fill="url(#roofPattern)" stroke="#9E9E9E" stroke-width="1" rx="3"/>
  <text x="550.0" y="510.0" text-anchor="middle" fill="#616161" font-family="Arial, sans-serif" font-size="11">S2</text>
  <rect x="595" y="480" width="60" height="50" fill="url(#roofPattern)" stroke="#9E9E9E" stroke-width="1" rx="3"/>
  <text x="625.0" y="510.0" text-anchor="middle" fill="#616161" font-family="Arial, sans-serif" font-size="11">S3</text>
  <rect x="670" y="480" width="60" height="50" fill="url(#roofPattern)" stroke="#9E9E9E" stroke-width="1" rx="3"/>
  <text x="700.0" y="510.0" text-anchor="middle" fill="#616161" font-family="Arial, sans-serif" font-size="11">S4</text>
  <rect x="445" y="545" width="60" height="50" fill="url(#roofPattern)" stroke="#9E9E9E" stroke-width="1" rx="3"/>
  <text x="475.0" y="575.0" text-anchor="middle" fill="#616161" font-family="Arial, sans-serif" font-size="11">S5</text>
  <rect x="520" y="545" width="60" height="50" fill="url(#roofPattern)" stroke="#9E9E9E" stroke-width="1" rx="3"/>
  <text x="550.0" y="575.0" text-anchor="middle" fill="#616161" font-family="Arial, sans-serif" font-size="11">S6</text>
  <rect x="595" y="545" width="60" height="50" fill="url(#roofPattern)" stroke="#9E9E9E" stroke-width="1" rx="3"/>
  <text x="625.0" y="575.0" text-anchor="middle" fill="#616161" font-family="Arial, sans-serif" font-size="11">S7</text>
  <rect x="670" y="545" width="60" height="50" fill="url(#roofPattern)" stroke="#9E9E9E" stroke-width="1" rx="3"/>
  <text x="700.0" y="575.0" text-anchor="middle" fill="#616161" font-family="Arial, sans-serif" font-size="11">S8</text>
  <rect x="445" y="610" width="60" height="50" fill="url(#roofPattern)" stroke="#9E9E9E" stroke-width="1" rx="3"/>
  <text x="475.0" y="640.0" text-anchor="middle" fill="#616161" font-family="Arial, sans-serif" font-size="11">S9</text>
  <rect x="520" y="610" width="60" height="50" fill="url(#roofPattern)" stroke="#9E9E9E" stroke-width="1" rx="3"/>
  <text x="550.0" y="640.0" text-anchor="middle" fill="#616161" font-family="Arial, sans-serif" font-size="11">S10</text>
  <rect x="595" y="610" width="60" height="50" fill="url(#roofPattern)" stroke="#9E9E9E" stroke-width="1" rx="3"/>
  <text x="625.0" y="640.0" text-anchor="middle" fill="#616161" font-family="Arial, sans-serif" font-size="11">S11</text>
  <rect x="670" y="610" width="60" height="50" fill="url(#roofPattern)" stroke="#9E9E9E" stroke-width="1" rx="3"/>
  <text x="700.0" y="640.0" text-anchor="middle" fill="#616161" font-family="Arial, sans-serif" font-size="11">S12</text>
  <rect x="800" y="120" width="350" height="280" fill="#FFF3E0" stroke="#BDBDBD" stroke-width="2" rx="8"/>
  <text x="975.0" y="145" text-anchor="middle" fill="#424242" font-family="Arial, sans-serif" font-size="16" font-weight="bold">Household</text>
  <rect x="820" y="170" width="60" height="50" fill="url(#roofPattern)" stroke="#9E9E9E" stroke-width="1" rx="3"/>
  <text x="850.0" y="200.0" text-anchor="middle" fill="#616161" font-family="Arial, sans-serif" font-size="11">S1</text>
  <rect x="895" y="170" width="60" height="50" fill="url(#roofPattern)" stroke="#9E9E9E" stroke-width="1" rx="3"/>
  <text x="925.0" y="200.0" text-anchor="middle" fill="#616161" font-family="Arial, sans-serif" font-size="11">S2</text>
  <rect x="970" y="170" width="60" height="50" fill="url(#roofPattern)" stroke="#9E9E9E" stroke-width="1" rx="3"/>
  <text x="1000.0" y="200.0" text-anchor="middle" fill="#616161" font-family="Arial, sans-serif" font-size="11">S3</text>
  <rect x="1045" y="170" width="60" height="50" fill="url(#roofPattern)" stroke="#9E9E9E" stroke-width="1" rx="3"/>
  <text x="1075.0" y="200.0" text-anchor="middle" fill="#616161" font-family="Arial, sans-serif" font-size="11">S4</text>
  <rect x="820" y="235" width="60" height="50" fill="url(#roofPattern)" stroke="#9E9E9E" stroke-width="1" rx="3"/>
  <text x="850.0" y="265.0" text-anchor="middle" fill="#616161" font-family="Arial, sans-serif" font-size="11">S5</text>
  <rect x="895" y="235" width="60" height="50" fill="url(#roofPattern)" stroke="#9E9E9E" stroke-width="1" rx="3"/>
  <text x="925.0" y="265.0" text-anchor="middle" fill="#616161" font-family="Arial, sans-serif" font-size="11">S6</text>
  <rect x="970" y="235" width="60" height="50" fill="url(#roofPattern)" stroke="#9E9E9E" stroke-width="1" rx="3"/>
  <text x="1000.0" y="265.0" text-anchor="middle" fill="#616161" font-family="Arial, sans-serif" font-size="11">S7</text>
  <rect x="1045" y="235" width="60" height="50" fill="url(#roofPattern)" stroke="#9E9E9E" stroke-width="1" rx="3"/>
  <text x="1075.0" y="265.0" text-anchor="middle" fill="#616161" font-family="Arial, sans-serif" font-size="11">S8</text>
  <rect x="820" y="300" width="60" height="50" fill="url(#roofPattern)" stroke="#9E9E9E" stroke-width="1" rx="3"/>
  <text x="850.0" y="330.0" text-anchor="middle" fill="#616161" font-family="Arial, sans-serif" font-size="11">S9</text>
  <rect x="895" y="300" width="60" height="50" fill="url(#roofPattern)" stroke="#9E9E9E" stroke-width="1" rx="3"/>
  <text x="925.0" y="330.0" text-anchor="middle" fill="#616161" font-family="Arial, sans-serif" font-size="11">S10</text>
  <rect x="970" y="300" width="60" height="50" fill="url(#roofPattern)" stroke="#9E9E9E" stroke-width="1" rx="3"/>
  <text x="1000.0" y="330.0" text-anchor="middle" fill="#616161" font-family="Arial, sans-serif" font-size="11">S11</text>
  <rect x="1045" y="300" width="60" height="50" fill="url(#roofPattern)" stroke="#9E9E9E" stroke-width="1" rx="3"/>
  <text x="1075.0" y="330.0" text-anchor="middle" fill="#616161" font-family="Arial, sans-serif" font-size="11">S12</text>
  <rect x="800" y="430" width="350" height="280" fill="#FBE9E7" stroke="#BDBDBD" stroke-width="2" rx="8"/>
  <text x="975.0" y="455" text-anchor="middle" fill="#424242" font-family="Arial, sans-serif" font-size="16" font-weight="bold">Provisions</text>
  <rect x="820" y="480" width="60" height="50" fill="url(#roofPattern)" stroke="#9E9E9E" stroke-width="1" rx="3"/>
  <text x="850.0" y="510.0" text-anchor="middle" fill="#616161" font-family="Arial, sans-serif" font-size="11">S1</text>
  <rect x="895" y="480" width="60" height="50" fill="url(#roofPattern)" stroke="#9E9E9E" stroke-width="1" rx="3"/>
  <text x="925.0" y="510.0" text-anchor="middle" fill="#616161" font-family="Arial, sans-serif" font-size="11">S2</text>
  <rect x="970" y="480" width="60" height="50" fill="url(#roofPattern)" stroke="#9E9E9E" stroke-width="1" rx="3"/>
  <text x="1000.0" y="510.0" text-anchor="middle" fill="#616161" font-family="Arial, sans-serif" font-size="11">S3</text>
  <rect x="1045" y="480" width="60" height="50" fill="url(#roofPattern)" stroke="#9E9E9E" stroke-width="1" rx="3"/>
  <text x="1075.0" y="510.0" text-anchor="middle" fill="#616161" font-family="Arial, sans-serif" font-size="11">S4</text>
  <rect x="820" y="545" width="60" height="50" fill="url(#roofPattern)" stroke="#9E9E9E" stroke-width="1" rx="3"/>
  <text x="850.0" y="575.0" text-anchor="middle" fill="#616161" font-family="Arial, sans-serif" font-size="11">S5</text>
  <rect x="895" y="545" width="60" height="50" fill="url(#roofPattern)" stroke="#9E9E9E" stroke-width="1" rx="3"/>
  <text x="925.0" y="575.0" text-anchor="middle" fill="#616161" font-family="Arial, sans-serif" font-size="11">S6</text>
  <rect x="970" y="545" width="60" height="50" fill="url(#roofPattern)" stroke="#9E9E9E" stroke-width="1" rx="3"/>
  <text x="1000.0" y="575.0" text-anchor="middle" fill="#616161" font-family="Arial, sans-serif" font-size="11">S7</text>
  <rect x="1045" y="545" width="60" height="50" fill="url(#roofPattern)" stroke="#9E9E9E" stroke-width="1" rx="3"/>
  <text x="1075.0" y="575.0" text-anchor="middle" fill="#616161" font-family="Arial, sans-serif" font-size="11">S8</text>
  <rect x="820" y="610" width="60" height="50" fill="url(#roofPattern)" stroke="#9E9E9E" stroke-width="1" rx="3"/>
  <text x="850.0" y="640.0" text-anchor="middle" fill="#616161" font-family="Arial, sans-serif" font-size="11">S9</text>
  <rect x="895" y="610" width="60" height="50" fill="url(#roofPattern)" stroke="#9E9E9E" stroke-width="1" rx="3"/>
  <text x="925.0" y="640.0" text-anchor="middle" fill="#616161" font-family="Arial, sans-serif" font-size="11">S10</text>
  <rect x="970" y="610" width="60" height="50" fill="url(#roofPattern)" stroke="#9E9E9E" stroke-width="1" rx="3"/>
  <text x="1000.0" y="640.0" text-anchor="middle" fill="#616161" font-family="Arial, sans-serif" font-size="11">S11</text>
  <rect x="1045" y="610" width="60" height="50" fill="url(#roofPattern)" stroke="#9E9E9E" stroke-width="1" rx="3"/>
  <text x="1075.0" y="640.0" text-anchor="middle" fill="#616161" font-family="Arial, sans-serif" font-size="11">S12</text>
  <rect x="400" y="120" width="20" height="590" fill="#FFFFFF" stroke="#E0E0E0" stroke-width="1" stroke-dasharray="5,5" opacity="0.8"/>
  <rect x="775" y="120" width="20" height="590" fill="#FFFFFF" stroke="#E0E0E0" stroke-width="1" stroke-dasharray="5,5" opacity="0.8"/>
  <rect x="50" y="400" width="1100" height="20" fill="#FFFFFF" stroke="#E0E0E0" stroke-width="1" stroke-dasharray="5,5" opacity="0.8"/>
  <rect x="50" y="740" width="100" height="40" fill="#FF5722" rx="5"/>
  <text x="100" y="765" text-anchor="middle" fill="white" font-family="Arial, sans-serif" font-size="14" font-weight="bold">Exit A</text>
  <rect x="1100" y="740" width="100" height="40" fill="#FF5722" rx="5"/>
  <text x="1150" y="765" text-anchor="middle" fill="white" font-family="Arial, sans-serif" font-size="14" font-weight="bold">Exit B</text>
  <rect x="1150" y="400" width="100" height="40" fill="#FF5722" rx="5"/>
  <text x="1200" y="425" text-anchor="middle" fill="white" font-family="Arial, sans-serif" font-size="14" font-weight="bold">Exit C</text>
  <rect x="350" y="750" width="80" height="35" fill="#2196F3" rx="5"/>
  <text x="390" y="772" text-anchor="middle" fill="white" font-family="Arial, sans-serif" font-size="12">Restroom</text>
  <rect x="750" y="750" width="80" height="35" fill="#2196F3" rx="5"/>
  <text x="790" y="772" text-anchor="middle" fill="white" font-family="Arial, sans-serif" font-size="12">ATM</text>
  <rect x="50" y="30" width="15" height="15" fill="#4CAF50" rx="2"/>
  <text x="70" y="42" fill="#424242" font-family="Arial, sans-serif" font-size="12">Entrance</text>
  <rect x="50" y="50" width="15" height="15" fill="#FF5722" rx="2"/>
  <text x="70" y="62" fill="#424242" font-family="Arial, sans-serif" font-size="12">Exit</text>
  <rect x="50" y="70" width="15" height="15" fill="#2196F3" rx="2"/>
  <text x="70" y="82" fill="#424242" font-family="Arial, sans-serif" font-size="12">Amenity</text>
  <rect x="50" y="90" width="15" height="15" fill="#BDBDBD" rx="2"/>
  <text x="70" y="102" fill="#424242" font-family="Arial, sans-serif" font-size="12">Stall</text>
</svg>